# xmcd
#
# Track frame offsets:
#	150
#	14260
#	26685
#	43990
#	57015
#	73257
#	90240
#	110552
#	122982
#	140065
#	154762
#	172742
#
# Disc length: 2519 seconds
# Revision: 6
# Processed by: cddbd v1.5.2PL0 Copyright (c) Steve Scherf et al.
# Submitted via: dBpowerAMP V12.0
#
DISCID=a109d50c
DTITLE=Randy Travis - You And You Alone
DYEAR=1998
DGENRE=Country*
TTITLE0=The Hole
TTITLE1=Out Of My Bones
TTITLE2=Spirit Of A Boy, Wisdom Of A Man
TTITLE3=Only Worse
TTITLE4=One Word Song
TTITLE5=I Did My Part
TTITLE6=Horse Called Music
TTITLE7=I'm Still Here, You're Still Gone
TTITLE8=Easy To Love You
TTITLE9=Stranger In My Mirror
TTITLE10=You And You Alone
TTITLE11=Satisfied Mind
EXTD=
EXTT0=
EXTT1=
EXTT2=
EXTT3=
EXTT4=
EXTT5=
EXTT6=
EXTT7=
EXTT8=
EXTT9=
EXTT10=
EXTT11=
PLAYORDER=
